<?xml version="1.0" standalone="no"?>
<!DOCTYPE svg PUBLIC "-//W3C//DTD SVG 20010904//EN"
 "http://www.w3.org/TR/2001/REC-SVG-20010904/DTD/svg10.dtd">
<svg version="1.0" xmlns="http://www.w3.org/2000/svg"
 width="400.000000pt" height="400.000000pt" viewBox="0 0 400.000000 400.000000"
 preserveAspectRatio="xMidYMid meet">
<metadata>
Created by potrace 1.14, written by Peter Selinger 2001-2017
</metadata>
<g transform="translate(0.000000,400.000000) scale(0.100000,-0.100000)"
fill="#000000" stroke="none">
<path d="M860 3256 c0 -7 4 -16 9 -21 5 -6 62 -102 127 -215 681 -1183 716
-1244 729 -1263 14 -20 26 0 225 388 57 110 109 209 116 219 11 16 13 -28 13
-260 0 -153 0 -296 0 -317 l1 -38 230 2 c307 3 388 14 502 70 216 105 358 304
393 549 14 98 5 258 -19 354 -53 209 -186 381 -356 465 -130 63 -186 72 -487
78 l-263 4 -1 -33 c0 -18 0 -148 0 -288 l0 -255 -51 -100 c-28 -55 -74 -145
-103 -200 -29 -55 -80 -154 -115 -220 -34 -66 -67 -128 -72 -138 -9 -18 -25 6
-200 313 -73 126 -220 380 -267 460 -31 52 -67 116 -81 141 -14 25 -61 107
-105 182 l-79 137 -73 -1 c-49 -1 -73 -5 -73 -13z m1734 -140 c225 -25 393
-174 467 -416 44 -141 28 -343 -39 -490 -58 -128 -180 -242 -296 -275 -83 -23
-101 -25 -308 -31 l-198 -6 0 611 0 610 53 3 c83 5 246 2 321 -6z"/>
<path d="M1230 1103 c-80 -158 -146 -290 -148 -293 -1 -4 9 -12 22 -18 30 -13
25 -20 92 112 l51 101 126 3 127 3 56 -113 c31 -62 58 -115 60 -117 2 -2 14 4
28 12 l24 16 -145 288 c-80 159 -146 289 -147 290 -1 1 -67 -127 -146 -284z
m195 62 c25 -53 45 -97 45 -98 0 -2 -42 -3 -92 -2 -76 0 -92 3 -90 14 5 21 82
181 87 181 3 0 25 -43 50 -95z"/>
<path d="M3376 1365 c-38 -13 -81 -47 -97 -76 -20 -38 -20 -102 1 -144 21 -44
48 -61 149 -96 78 -27 99 -44 107 -84 22 -117 -125 -175 -215 -85 -27 27 -33
29 -51 18 -27 -17 -25 -28 9 -61 120 -113 320 -52 323 97 1 85 -31 125 -128
160 -112 39 -141 61 -150 114 -8 43 37 97 89 108 32 6 103 -15 123 -37 16 -18
18 -18 36 -3 10 10 18 22 18 28 0 14 -78 66 -100 67 -8 0 -29 2 -45 4 -17 2
-47 -3 -69 -10z"/>
<path d="M3801 1370 c-39 -9 -76 -35 -105 -73 -15 -20 -20 -43 -21 -85 0 -86
20 -108 144 -156 106 -41 131 -63 131 -112 0 -59 -47 -103 -117 -109 -32 -3
-97 29 -116 55 -13 19 -17 20 -36 8 -28 -17 -27 -29 7 -60 42 -40 86 -58 142
-58 64 0 109 18 143 59 24 29 27 41 27 105 0 66 -3 76 -26 99 -14 15 -63 40
-107 57 -45 17 -89 36 -98 43 -58 44 -43 134 28 164 45 18 96 10 139 -22 31
-24 32 -24 49 -5 17 19 17 21 -1 41 -40 44 -114 64 -183 49z"/>
<path d="M13 1364 c-7 -3 -9 -13 -6 -22 6 -18 173 -390 227 -506 l32 -69 84
184 c110 242 149 327 168 367 13 29 13 35 1 43 -36 23 -45 9 -146 -218 -55
-126 -104 -227 -108 -226 -5 1 -53 103 -108 227 -99 225 -106 235 -144 220z"/>
<path d="M588 1363 c-17 -4 -18 -27 -18 -292 l0 -288 30 5 30 4 0 289 c0 302
1 294 -42 282z"/>
<path d="M681 1361 c-10 -7 11 -62 99 -257 62 -137 121 -269 132 -294 l20 -45
23 50 c13 28 73 159 134 293 l109 243 -24 11 c-15 7 -28 8 -33 2 -4 -5 -27
-54 -51 -109 -24 -55 -55 -127 -70 -160 -51 -112 -77 -170 -81 -184 -3 -7 -52
93 -109 223 -104 235 -113 249 -149 227z"/>
<path d="M1945 1362 c-3 -3 -5 -133 -5 -289 l0 -283 105 0 c126 0 193 21 247
77 61 64 80 115 78 215 -1 114 -64 219 -159 261 -32 14 -70 19 -152 21 -60 2
-111 0 -114 -2z m257 -80 c45 -28 68 -58 90 -114 22 -58 23 -121 4 -176 -40
-112 -111 -149 -272 -143 -21 1 -21 3 -21 232 l1 232 82 -6 c60 -3 92 -11 116
-25z"/>
<path d="M2465 1362 c-3 -3 -5 -133 -5 -289 l0 -283 30 0 c17 0 30 6 31 13 0
6 1 67 1 133 l0 122 32 -37 c17 -20 65 -76 106 -126 106 -127 95 -119 125 -99
l25 16 -90 103 c-50 57 -90 106 -90 109 0 3 10 6 23 6 81 0 144 120 114 215
-28 87 -82 117 -209 120 -49 1 -90 -1 -93 -3z m180 -66 c82 -34 88 -162 10
-207 -26 -15 -84 -25 -121 -20 -7 1 -11 43 -11 121 l-1 120 44 0 c25 0 60 -6
79 -14z"/>
<path d="M2881 1362 c-8 -3 -11 -94 -11 -288 l0 -284 164 0 c159 0 165 1 171
21 4 12 3 24 -3 28 -6 3 -69 6 -141 5 l-131 0 0 103 c0 100 1 103 23 104 12 1
58 2 102 4 106 3 104 2 100 23 -2 9 -4 20 -4 25 -1 4 -50 7 -111 7 l-110 0 0
100 0 100 130 0 c117 0 130 2 130 18 0 9 -4 22 -8 27 -6 10 -275 16 -301 7z"/>
</g>
</svg>
