<?xml version="1.0" encoding="utf-8"?>
<!-- Generator: Adobe Illustrator 16.0.0, SVG Export Plug-In . SVG Version: 6.00 Build 0)  -->
<!DOCTYPE svg PUBLIC "-//W3C//DTD SVG 1.1//EN" "http://www.w3.org/Graphics/SVG/1.1/DTD/svg11.dtd">
<svg version="1.1" id="Layer_1" xmlns="http://www.w3.org/2000/svg" xmlns:xlink="http://www.w3.org/1999/xlink" x="0px" y="0px"
	 width="98px" height="22px" viewBox="0 0 98 22" enable-background="new 0 0 98 22" xml:space="preserve">
<path fill="#3F5D87" d="M26.339,1.619c-0.693,0-1.591,0.7-2.121,1.164c-1.167,0.983-2.222,2.792-2.222,4.242
	c0,2.061,1.845,2.84,2.313,2.84c0.154,0,0.285-0.076,0.285-0.275c0-0.154-0.105-0.284-0.208-0.417
	c-0.427-0.621-0.564-1.213-0.564-2.013c0-1.665,0.808-3.192,1.479-3.891c0.124-0.126,0.403-0.4,0.486-0.4s0.104,0.065,0.104,0.263
	l-0.078,10.904c0,1.705-0.518,2.383-0.518,2.783c0,0.177,0.081,0.222,0.234,0.222c0.728,0,1.451-0.841,1.656-1.146
	c0.636-1.045,0.792-1.86,0.792-4.21V2.521c0-0.249-0.072-0.355-0.321-0.509C27.293,1.793,26.879,1.619,26.339,1.619z M47.114,1.65
	c-0.341,0-0.488,0.168-0.504,0.694l-0.076,2.174l-2.001-0.065c-0.122-0.003-0.176,0.033-0.229,0.134
	c-0.17,0.303-0.261,0.54-0.261,0.935c0,0.322,0.155,0.355,0.292,0.355l2.083,0.058l-0.008,4.154c0,0.88-0.584,2.025-1.623,2.975
	c0,0,0.088-0.287,0.084-0.586c0-0.855-0.578-1.626-1.348-2.174l-1.879-1.342c0.394-0.433,1.062-1.292,1.062-2.017
	c0-0.561-0.373-0.798-1.066-0.798c-0.978,0-2.114,0.852-2.114,2.116c0,0.46,0.216,0.875,0.543,1.192
	c-0.452,0.815-1.092,1.888-1.569,2.654c-0.358,0.583-0.966,1.48-1.325,1.48c-0.265,0-0.388-0.397-0.388-1.918
	c0-1.265,0.096-2.639,0.143-3.958c0-0.302-0.052-0.581-0.465-0.855c-0.381-0.231-0.85-0.554-1.333-0.554
	c-1.076,0-1.808,0.94-2.312,1.859c-0.519,0.953-0.8,1.756-1.197,2.919l0.043-4.006c0.014-0.287-0.061-0.398-0.303-0.496
	c-0.312-0.125-0.771-0.271-1.179-0.271c-0.34,0-0.382,0.14-0.382,0.479l-0.046,4.81l-0.005,1.854c0,1.674,0.222,1.955,1.267,1.955
	c0.577,0,0.762-0.063,0.774-0.523c0.016-0.303,0.167-1.033,0.375-1.766c0.602-2.167,1.314-3.882,2.543-5.188
	c0.129-0.127,0.227-0.082,0.207,0.099c0,0-0.193,2.932-0.193,4.13c0,2.135,0.345,3.248,1.462,3.248c1.096,0,2.172-1.342,2.761-2.242
	l1.884-2.997c1.223,0.99,2.075,1.754,2.075,2.688c0,0.583-0.384,1.149-0.971,1.149c-0.733,0-1.201-0.738-1.698-0.738
	c-0.41,0-0.937,0.759-0.937,1.187c0,0.403,0.927,0.975,2.593,0.975c2.458,0,3.779-1.602,4.568-3.38
	c0.153,2.111,1.035,3.339,2.415,3.339c0.903,0,1.947-1.086,2.422-2.412c0,0,0.049,0.347,0.407,1.053
	c0.496,0.92,1.253,1.344,2.191,1.344c1.166,0,2.163-0.675,2.771-1.802c0.094,0.856,0.849,1.797,2.065,1.797
	c0.763,0,1.458-0.555,1.912-1.474c0,0,0.59,1.515,2.299,1.515c0.961,0,2.097-0.847,2.369-1.459l0.031,0.891l-2.539,2.22
	c-0.737,0.682-1.517,1.658-1.517,2.737c0,1.371,1.363,2.161,2.562,2.161c1.251,0,2.079-0.751,2.534-1.38
	c0.57-0.815,0.813-2.351,0.813-3.851l-0.058-2.261c1.707-1.785,3.046-4.251,3.642-5.995l1.295-0.034
	c0.253-0.016,0.241,0.079,0.206,0.218c-0.229,0.915-0.428,1.951-0.428,2.983c0,1.706,0.414,2.448,1.01,3.057
	c0.516,0.509,1.028,0.681,1.567,0.681c1.062,0,1.725-0.833,1.937-1.353c0.493,0.918,1.227,1.349,2.165,1.349
	c1.166,0,2.161-0.675,2.772-1.802c0.095,0.856,0.847,1.797,2.062,1.797c0.907,0,1.435-0.5,1.846-1.435
	c0.01,0.299,0.022,0.622,0.032,0.923c0.01,0.156,0.139,0.256,0.258,0.296c0.387,0.137,0.726,0.209,1.029,0.209
	c0.794,0,0.964-0.156,0.964-0.649c0-0.812,0.025-2.095,0.267-3.126c0.261-1.025,0.648-2.187,1.186-2.995
	c0.049-0.083,0.169-0.062,0.173,0.04c0.078,1.729,0.199,4.654,0.678,5.413c0.235,0.364,0.602,0.626,1.146,0.626
	c0.257,0,0.57-0.102,0.648-0.168c0.082-0.062,0.123-0.126,0.117-0.253c0-2.211,0.726-4.349,1.452-5.788
	c0.02-0.042,0.079-0.046,0.079,0.01l-0.044,1.593c0,2.616,0.198,4.268,1.574,5.063c0.271,0.143,0.574,0.22,0.886,0.217
	c0.703,0,1.34-0.373,1.653-0.972c0.259-0.469,0.502-1.367,0.502-1.875c0-0.2,0.002-0.518-0.339-0.518
	c-0.187,0-0.3,0.131-0.343,0.328c-0.108,0.425-0.198,0.794-0.367,1.215c-0.158,0.406-0.399,0.643-0.682,0.643
	c-0.335,0-0.506-0.252-0.602-0.405c-0.425-0.617-0.458-2.037-0.458-3.22l0.104-3.045c0-0.252-0.113-0.553-0.521-0.776
	c-0.276-0.151-0.97-0.434-1.396-0.434c-0.396,0-0.586,0.212-0.729,0.524c-0.269,0.56-1.16,2.757-1.401,4.542
	c-0.01,0.048-0.07,0.059-0.074-0.001c-0.121-1.264-0.188-2.786-0.187-3.812c0-0.31-0.08-0.753-0.771-1.042
	c-0.335-0.132-0.615-0.214-0.954-0.214c-0.426,0-0.514,0.196-0.667,0.458c-0.478,0.838-0.809,1.934-1.303,3.314l0.006-3.16
	c0-0.147-0.094-0.342-0.368-0.394c-0.679-0.147-0.99-0.215-1.259-0.215c-0.191,0-0.302,0.147-0.302,0.307l-0.035,5.383
	c-0.129,0.664-0.662,2.237-1.414,2.237c-0.62,0-0.908-0.596-0.908-3.08l0.114-4.042c0-0.256-0.179-0.363-0.434-0.471
	c-0.368-0.139-0.66-0.194-1.032-0.194c-0.471,0-0.631,0.213-0.537,0.725c-0.516-0.663-1.028-1.027-1.938-1.027
	c-1.829,0-3.206,2.088-3.206,5.122c-0.018,0.854,0.197,1.695,0.197,1.695c-0.164,0.708-0.552,1.285-1.091,1.285
	c-0.679,0-1.107-0.91-1.107-2.489c0-1.581,0.633-3.365,0.633-3.848c0-0.562-0.388-0.918-1.076-0.918
	c-0.341,0-1.616,0.275-2.271,0.366c0,0,0.072-0.296,0.068-0.529c0-0.554-0.274-0.901-0.954-0.901c-0.831,0-1.438,0.564-1.438,1.524
	c0,0.432,0.261,0.831,0.605,1.045c-0.449,1.78-1.178,3.104-2.256,4.584l0.091-5.991c0-0.194-0.056-0.314-0.457-0.463
	c-0.212-0.088-0.559-0.188-0.993-0.188c-0.631,0-0.59,0.429-0.555,0.75c-0.288-0.487-0.923-1.065-1.901-1.065
	c-2.658,0-3.474,3.855-3.076,6.59c0,0.337-0.343,1.521-1.119,1.521c-0.619,0-0.905-0.596-0.905-3.08l0.116-4.042
	c0-0.256-0.181-0.363-0.438-0.471c-0.368-0.139-0.656-0.194-1.03-0.194c-0.471,0-0.631,0.213-0.535,0.725
	c-0.514-0.663-1.031-1.027-1.944-1.027c-1.828,0-3.224,1.909-3.224,4.944c0,1.16-1.048,2.925-1.785,2.925
	c-0.408,0-0.843-0.715-0.843-2.535c0.002-1.243,0.18-5.471,0.18-5.471l2.569-0.04c0.121-0.002,0.192-0.129,0.237-0.207
	c0.119-0.228,0.176-0.379,0.176-0.651c0-0.245-0.051-0.336-0.382-0.354l-2.561-0.146l0.107-2.266
	c0.01-0.144-0.082-0.238-0.249-0.307C48.107,1.828,47.5,1.65,47.114,1.65z M54.89,7.589c0.686,0,1.382,0.593,1.382,2.699
	c0,2.652-1.016,3.886-1.797,3.886c-0.737,0-1.292-0.983-1.292-2.915C53.183,9.309,53.728,7.589,54.89,7.589L54.89,7.589z
	 M79.568,7.589c0.685,0,1.376,0.593,1.376,2.699c0,2.652-1.015,3.886-1.795,3.886c-0.732,0-1.291-0.983-1.291-2.915
	C77.858,9.309,78.398,7.589,79.568,7.589L79.568,7.589z M63.916,7.601c0.894,0,1.291,0.875,1.291,2.573
	c0,2.558-0.804,4.016-1.773,4.016c-0.621,0-1.337-0.968-1.297-2.874C62.137,10.099,62.554,7.601,63.916,7.601L63.916,7.601z
	 M65.431,16.165v1.007c0,3.345-0.937,3.914-1.691,3.914c-0.286,0-0.985-0.207-0.985-1.031c0-1.155,1.271-2.474,1.667-2.881
	L65.431,16.165L65.431,16.165z"/>
<g id="_x37__stroke">
	<g id="Instagram_1_">
		<rect fill="none" width="18.428" height="18.324"/>
		
			<radialGradient id="Instagram_2_" cx="2.7515" cy="-0.1792" r="23.5477" gradientTransform="matrix(1 0 0 0.9943 0 0.1147)" gradientUnits="userSpaceOnUse">
			<stop  offset="0" style="stop-color:#FFB140"/>
			<stop  offset="0.2559" style="stop-color:#FF5445"/>
			<stop  offset="0.599" style="stop-color:#FC2B82"/>
			<stop  offset="1" style="stop-color:#8E40B7"/>
		</radialGradient>
		<path id="Instagram" fill="url(#Instagram_2_)" d="M15.238,4.27c0,0.608-0.495,1.1-1.105,1.1c-0.611,0-1.106-0.492-1.106-1.1
			c0-0.606,0.495-1.098,1.106-1.098C14.743,3.172,15.238,3.664,15.238,4.27z M9.214,12.216c-1.696,0-3.071-1.368-3.071-3.055
			s1.375-3.054,3.071-3.054c1.697,0,3.072,1.367,3.072,3.054S10.911,12.216,9.214,12.216z M9.214,4.458
			c-2.613,0-4.731,2.105-4.731,4.704c0,2.597,2.118,4.704,4.731,4.704s4.731-2.107,4.731-4.704
			C13.945,6.562,11.827,4.458,9.214,4.458z M9.214,1.65c2.46,0,2.752,0.01,3.724,0.054c0.898,0.041,1.386,0.19,1.711,0.314
			c0.43,0.167,0.736,0.366,1.059,0.686c0.323,0.32,0.522,0.625,0.69,1.054c0.125,0.323,0.276,0.807,0.317,1.701
			c0.044,0.965,0.054,1.256,0.054,3.702c0,2.447-0.01,2.735-0.054,3.702c-0.041,0.894-0.191,1.378-0.317,1.702
			c-0.168,0.427-0.367,0.732-0.69,1.053c-0.322,0.319-0.629,0.52-1.059,0.688c-0.326,0.122-0.813,0.271-1.711,0.314
			c-0.972,0.041-1.263,0.053-3.724,0.053S6.462,16.661,5.49,16.62c-0.898-0.043-1.386-0.192-1.711-0.314
			c-0.43-0.168-0.736-0.368-1.059-0.688c-0.322-0.32-0.522-0.626-0.69-1.053c-0.126-0.324-0.275-0.809-0.317-1.702
			C1.67,11.896,1.66,11.606,1.66,9.161c0-2.446,0.01-2.736,0.054-3.702C1.755,4.565,1.904,4.081,2.03,3.758
			c0.167-0.428,0.368-0.733,0.69-1.054c0.322-0.32,0.628-0.52,1.059-0.686C4.104,1.895,4.592,1.745,5.49,1.704
			C6.462,1.66,6.753,1.65,9.214,1.65z M9.214,0C6.712,0,6.397,0.01,5.415,0.056c-0.98,0.043-1.651,0.198-2.236,0.425
			C2.572,0.715,2.059,1.029,1.546,1.537c-0.511,0.51-0.827,1.021-1.062,1.624C0.255,3.744,0.1,4.41,0.056,5.384
			C0.01,6.361,0,6.673,0,9.161s0.01,2.8,0.056,3.776c0.043,0.975,0.199,1.642,0.427,2.225c0.235,0.604,0.551,1.113,1.062,1.624
			c0.513,0.508,1.026,0.821,1.633,1.055c0.585,0.229,1.256,0.381,2.236,0.424c0.982,0.048,1.297,0.06,3.799,0.06
			c2.502,0,2.816-0.012,3.799-0.06c0.979-0.043,1.65-0.195,2.235-0.424c0.607-0.233,1.121-0.547,1.633-1.055
			c0.511-0.511,0.827-1.021,1.062-1.624c0.229-0.583,0.384-1.25,0.428-2.225c0.046-0.976,0.056-1.289,0.056-3.776
			s-0.01-2.8-0.056-3.777c-0.044-0.974-0.199-1.64-0.428-2.223c-0.235-0.604-0.551-1.114-1.062-1.624
			c-0.513-0.508-1.026-0.822-1.633-1.056c-0.585-0.228-1.256-0.382-2.235-0.425C12.03,0.01,11.716,0,9.214,0z"/>
	</g>
</g>
</svg>
